<?xml version="1.0" encoding="UTF-8" standalone="no"?>
<!DOCTYPE svg PUBLIC "-//W3C//DTD SVG 1.1//EN"
 "http://www.w3.org/Graphics/SVG/1.1/DTD/svg11.dtd">
<!-- Generated by graphviz version 2.26.3 (20100126.1600)
 -->
<!-- Title: G Pages: 1 -->
<svg width="903pt" height="1092pt"
 viewBox="0.00 0.00 903.00 1092.00" xmlns="http://www.w3.org/2000/svg" xmlns:xlink="http://www.w3.org/1999/xlink">
<g id="graph1" class="graph" transform="scale(1 1) rotate(0) translate(4 1088)">
<title>G</title>
<polygon fill="white" stroke="white" points="-4,5 -4,-1088 900,-1088 900,5 -4,5"/>
<g id="graph2" class="cluster"><title>cluster_DA</title>
<polyline fill="none" stroke="gray" points="20,-206 875,-206 "/>
<path fill="none" stroke="gray" d="M875,-206C881,-206 887,-212 887,-218"/>
<polyline fill="none" stroke="gray" points="887,-218 887,-1064 "/>
<path fill="none" stroke="gray" d="M887,-1064C887,-1070 881,-1076 875,-1076"/>
<polyline fill="none" stroke="gray" points="875,-1076 20,-1076 "/>
<path fill="none" stroke="gray" d="M20,-1076C14,-1076 8,-1070 8,-1064"/>
<polyline fill="none" stroke="gray" points="8,-1064 8,-218 "/>
<path fill="none" stroke="gray" d="M8,-218C8,-212 14,-206 20,-206"/>
<text text-anchor="middle" x="447.5" y="-1062.1" font-family="Times Roman,serif" font-size="11.00" fill="gray">DA</text>
</g>
<g id="graph3" class="cluster"><title>cluster_DA\Builder</title>
<polyline fill="none" stroke="gray" points="38,-880 864,-880 "/>
<path fill="none" stroke="gray" d="M864,-880C870,-880 876,-886 876,-892"/>
<polyline fill="none" stroke="gray" points="876,-892 876,-1034 "/>
<path fill="none" stroke="gray" d="M876,-1034C876,-1040 870,-1046 864,-1046"/>
<polyline fill="none" stroke="gray" points="864,-1046 38,-1046 "/>
<path fill="none" stroke="gray" d="M38,-1046C32,-1046 26,-1040 26,-1034"/>
<polyline fill="none" stroke="gray" points="26,-1034 26,-892 "/>
<path fill="none" stroke="gray" d="M26,-892C26,-886 32,-880 38,-880"/>
<text text-anchor="middle" x="451" y="-1032.1" font-family="Times Roman,serif" font-size="11.00" fill="gray">Builder</text>
</g>
<g id="graph4" class="cluster"><title>cluster_DA\Builder\Presenca</title>
<polyline fill="none" stroke="gray" points="792,-888 856,-888 "/>
<path fill="none" stroke="gray" d="M856,-888C862,-888 868,-894 868,-900"/>
<polyline fill="none" stroke="gray" points="868,-900 868,-1004 "/>
<path fill="none" stroke="gray" d="M868,-1004C868,-1010 862,-1016 856,-1016"/>
<polyline fill="none" stroke="gray" points="856,-1016 792,-1016 "/>
<path fill="none" stroke="gray" d="M792,-1016C786,-1016 780,-1010 780,-1004"/>
<polyline fill="none" stroke="gray" points="780,-1004 780,-900 "/>
<path fill="none" stroke="gray" d="M780,-900C780,-894 786,-888 792,-888"/>
<text text-anchor="middle" x="824" y="-1002.1" font-family="Times Roman,serif" font-size="11.00" fill="gray">Presenca</text>
</g>
<g id="graph6" class="cluster"><title>cluster_DA\Console</title>
<polyline fill="none" stroke="gray" points="781,-350 867,-350 "/>
<path fill="none" stroke="gray" d="M867,-350C873,-350 879,-356 879,-362"/>
<polyline fill="none" stroke="gray" points="879,-362 879,-496 "/>
<path fill="none" stroke="gray" d="M879,-496C879,-502 873,-508 867,-508"/>
<polyline fill="none" stroke="gray" points="867,-508 781,-508 "/>
<path fill="none" stroke="gray" d="M781,-508C775,-508 769,-502 769,-496"/>
<polyline fill="none" stroke="gray" points="769,-496 769,-362 "/>
<path fill="none" stroke="gray" d="M769,-362C769,-356 775,-350 781,-350"/>
<text text-anchor="middle" x="824" y="-494.1" font-family="Times Roman,serif" font-size="11.00" fill="gray">Console</text>
</g>
<g id="graph7" class="cluster"><title>cluster_DA\Console\Command</title>
<polyline fill="none" stroke="gray" points="789,-404 859,-404 "/>
<path fill="none" stroke="gray" d="M859,-404C865,-404 871,-410 871,-416"/>
<polyline fill="none" stroke="gray" points="871,-416 871,-466 "/>
<path fill="none" stroke="gray" d="M871,-466C871,-472 865,-478 859,-478"/>
<polyline fill="none" stroke="gray" points="859,-478 789,-478 "/>
<path fill="none" stroke="gray" d="M789,-478C783,-478 777,-472 777,-466"/>
<polyline fill="none" stroke="gray" points="777,-466 777,-416 "/>
<path fill="none" stroke="gray" d="M777,-416C777,-410 783,-404 789,-404"/>
<text text-anchor="middle" x="824" y="-464.1" font-family="Times Roman,serif" font-size="11.00" fill="gray">Command</text>
</g>
<g id="graph9" class="cluster"><title>cluster_DA\Repository</title>
<polyline fill="none" stroke="gray" points="28,-690 864,-690 "/>
<path fill="none" stroke="gray" d="M864,-690C870,-690 876,-696 876,-702"/>
<polyline fill="none" stroke="gray" points="876,-702 876,-860 "/>
<path fill="none" stroke="gray" d="M876,-860C876,-866 870,-872 864,-872"/>
<polyline fill="none" stroke="gray" points="864,-872 28,-872 "/>
<path fill="none" stroke="gray" d="M28,-872C22,-872 16,-866 16,-860"/>
<polyline fill="none" stroke="gray" points="16,-860 16,-702 "/>
<path fill="none" stroke="gray" d="M16,-702C16,-696 22,-690 28,-690"/>
<text text-anchor="middle" x="446" y="-858.1" font-family="Times Roman,serif" font-size="11.00" fill="gray">Repository</text>
</g>
<g id="graph10" class="cluster"><title>cluster_DA\Repository\Presenca</title>
<polyline fill="none" stroke="gray" points="792,-714 856,-714 "/>
<path fill="none" stroke="gray" d="M856,-714C862,-714 868,-720 868,-726"/>
<polyline fill="none" stroke="gray" points="868,-726 868,-830 "/>
<path fill="none" stroke="gray" d="M868,-830C868,-836 862,-842 856,-842"/>
<polyline fill="none" stroke="gray" points="856,-842 792,-842 "/>
<path fill="none" stroke="gray" d="M792,-842C786,-842 780,-836 780,-830"/>
<polyline fill="none" stroke="gray" points="780,-830 780,-726 "/>
<path fill="none" stroke="gray" d="M780,-726C780,-720 786,-714 792,-714"/>
<text text-anchor="middle" x="824" y="-828.1" font-family="Times Roman,serif" font-size="11.00" fill="gray">Presenca</text>
</g>
<g id="graph11" class="cluster"><title>cluster_DA\Scrapper</title>
<polyline fill="none" stroke="gray" points="34,-516 864,-516 "/>
<path fill="none" stroke="gray" d="M864,-516C870,-516 876,-522 876,-528"/>
<polyline fill="none" stroke="gray" points="876,-528 876,-670 "/>
<path fill="none" stroke="gray" d="M876,-670C876,-676 870,-682 864,-682"/>
<polyline fill="none" stroke="gray" points="864,-682 34,-682 "/>
<path fill="none" stroke="gray" d="M34,-682C28,-682 22,-676 22,-670"/>
<polyline fill="none" stroke="gray" points="22,-670 22,-528 "/>
<path fill="none" stroke="gray" d="M22,-528C22,-522 28,-516 34,-516"/>
<text text-anchor="middle" x="449" y="-668.1" font-family="Times Roman,serif" font-size="11.00" fill="gray">Scrapper</text>
</g>
<g id="graph12" class="cluster"><title>cluster_DA\Scrapper\Presenca</title>
<polyline fill="none" stroke="gray" points="792,-524 856,-524 "/>
<path fill="none" stroke="gray" d="M856,-524C862,-524 868,-530 868,-536"/>
<polyline fill="none" stroke="gray" points="868,-536 868,-640 "/>
<path fill="none" stroke="gray" d="M868,-640C868,-646 862,-652 856,-652"/>
<polyline fill="none" stroke="gray" points="856,-652 792,-652 "/>
<path fill="none" stroke="gray" d="M792,-652C786,-652 780,-646 780,-640"/>
<polyline fill="none" stroke="gray" points="780,-640 780,-536 "/>
<path fill="none" stroke="gray" d="M780,-536C780,-530 786,-524 792,-524"/>
<text text-anchor="middle" x="824" y="-638.1" font-family="Times Roman,serif" font-size="11.00" fill="gray">Presenca</text>
</g>
<g id="graph13" class="cluster"><title>cluster_DA\Util</title>
<polyline fill="none" stroke="gray" points="792,-214 856,-214 "/>
<path fill="none" stroke="gray" d="M856,-214C862,-214 868,-220 868,-226"/>
<polyline fill="none" stroke="gray" points="868,-226 868,-330 "/>
<path fill="none" stroke="gray" d="M868,-330C868,-336 862,-342 856,-342"/>
<polyline fill="none" stroke="gray" points="856,-342 792,-342 "/>
<path fill="none" stroke="gray" d="M792,-342C786,-342 780,-336 780,-330"/>
<polyline fill="none" stroke="gray" points="780,-330 780,-226 "/>
<path fill="none" stroke="gray" d="M780,-226C780,-220 786,-214 792,-214"/>
<text text-anchor="middle" x="824" y="-328.1" font-family="Times Roman,serif" font-size="11.00" fill="gray">Util</text>
</g>
<!-- \\DA\\Builder\\Presenca\\Comissao -->
<g id="node4" class="node"><title>\\DA\\Builder\\Presenca\\Comissao</title>
<a xlink:href="DA.Builder.Presenca.Comissao.html" xlink:title="Comissao" target="_parent">
<polygon fill="none" stroke="black" points="859,-986 789,-986 789,-950 859,-950 859,-986"/>
<text text-anchor="middle" x="824" y="-965.1" font-family="Courier,monospace" font-size="11.00">Comissao</text>
</a>
</g>
<!-- \\DA\\Builder\\Presenca -->
<g id="node6" class="node"><title>\\DA\\Builder\\Presenca</title>
<a xlink:href="DA.Builder.Presenca.html" xlink:title="«abstract»&lt;br/&gt;Presenca" target="_parent">
<polygon fill="none" stroke="black" points="485,-982 401,-982 401,-946 485,-946 485,-982"/>
<text text-anchor="start" x="409" y="-969.433" font-family="Courier,monospace" font-size="11.00">«abstract»</text>
<text text-anchor="start" x="415.5" y="-956.233" font-family="Courier,monospace" font-size="11.00">Presenca</text>
</a>
</g>
<!-- \\DA\\Builder\\Presenca\\Comissao&#45;&gt;\\DA\\Builder\\Presenca -->
<g id="edge45" class="edge"><title>\\DA\\Builder\\Presenca\\Comissao&#45;&gt;\\DA\\Builder\\Presenca</title>
<path fill="none" stroke="black" d="M788.499,-967.627C721.228,-966.921 574.877,-965.385 495.963,-964.556"/>
<polygon fill="none" stroke="black" points="495.791,-961.054 485.755,-964.449 495.718,-968.054 495.791,-961.054"/>
</g>
<!-- \\DA\\Builder\\Presenca\\Sessao -->
<g id="node5" class="node"><title>\\DA\\Builder\\Presenca\\Sessao</title>
<a xlink:href="DA.Builder.Presenca.Sessao.html" xlink:title="Sessao" target="_parent">
<polygon fill="none" stroke="black" points="852,-932 796,-932 796,-896 852,-896 852,-932"/>
<text text-anchor="middle" x="824" y="-911.1" font-family="Courier,monospace" font-size="11.00">Sessao</text>
</a>
</g>
<!-- \\DA\\Builder\\Presenca\\Sessao&#45;&gt;\\DA\\Builder\\Presenca -->
<g id="edge47" class="edge"><title>\\DA\\Builder\\Presenca\\Sessao&#45;&gt;\\DA\\Builder\\Presenca</title>
<path fill="none" stroke="black" d="M795.03,-920.404C771.22,-925.485 736.555,-932.463 706,-937 633.428,-947.775 548.948,-955.621 495.725,-959.995"/>
<polygon fill="none" stroke="black" points="495.194,-956.526 485.509,-960.823 495.759,-963.503 495.194,-956.526"/>
</g>
<!-- \\DA\\Builder\\Builder -->
<g id="node7" class="node"><title>\\DA\\Builder\\Builder</title>
<a xlink:href="DA.Builder.Builder.html" xlink:title="Builder" target="_parent">
<polygon fill="none" stroke="black" points="98,-955 34,-955 34,-919 98,-919 98,-955"/>
<text text-anchor="middle" x="66" y="-934.1" font-family="Courier,monospace" font-size="11.00">Builder</text>
</a>
</g>
<!-- \\DA\\Builder\\Presenca&#45;&gt;\\DA\\Builder\\Builder -->
<g id="edge41" class="edge"><title>\\DA\\Builder\\Presenca&#45;&gt;\\DA\\Builder\\Builder</title>
<path fill="none" stroke="black" d="M400.486,-960.955C327.895,-955.756 180.881,-945.228 108.381,-940.035"/>
<polygon fill="none" stroke="black" points="108.467,-936.533 98.2427,-939.309 107.967,-943.515 108.467,-936.533"/>
</g>
<!-- \\DA\\Builder\\Deputado -->
<g id="node8" class="node"><title>\\DA\\Builder\\Deputado</title>
<a xlink:href="DA.Builder.Deputado.html" xlink:title="Deputado" target="_parent">
<polygon fill="none" stroke="black" points="478,-928 408,-928 408,-892 478,-892 478,-928"/>
<text text-anchor="middle" x="443" y="-907.1" font-family="Courier,monospace" font-size="11.00">Deputado</text>
</a>
</g>
<!-- \\DA\\Builder\\Deputado&#45;&gt;\\DA\\Builder\\Builder -->
<g id="edge43" class="edge"><title>\\DA\\Builder\\Deputado&#45;&gt;\\DA\\Builder\\Builder</title>
<path fill="none" stroke="black" d="M407.193,-912.564C337.239,-917.574 182.75,-928.639 108.061,-933.988"/>
<polygon fill="none" stroke="black" points="107.793,-930.498 98.0688,-934.703 108.293,-937.48 107.793,-930.498"/>
</g>
<!-- \\DA\\Console\\Command\\Atualizar -->
<g id="node12" class="node"><title>\\DA\\Console\\Command\\Atualizar</title>
<a xlink:href="DA.Console.Command.Atualizar.html" xlink:title="Atualizar" target="_parent">
<polygon fill="none" stroke="black" points="862,-448 786,-448 786,-412 862,-412 862,-448"/>
<text text-anchor="middle" x="824" y="-427.1" font-family="Courier,monospace" font-size="11.00">Atualizar</text>
</a>
</g>
<!-- \\Symfony\\Component\\Console\\Command\\Command -->
<g id="node45" class="node"><title>\\Symfony\\Component\\Console\\Command\\Command</title>
<ellipse fill="none" stroke="black" cx="443" cy="-180" rx="261.837" ry="18.3848"/>
<text text-anchor="middle" x="443" y="-176.4" font-family="Times Roman,serif" font-size="14.00" fill="gray">\Symfony\Component\Console\Command\Command</text>
</g>
<!-- \\DA\\Console\\Command\\Atualizar&#45;&gt;\\Symfony\\Component\\Console\\Command\\Command -->
<g id="edge29" class="edge"><title>\\DA\\Console\\Command\\Atualizar&#45;&gt;\\Symfony\\Component\\Console\\Command\\Command</title>
<path fill="none" stroke="black" d="M785.315,-415.838C779.745,-413.423 774.157,-410.787 769,-408 653.12,-345.383 528.973,-249.528 473.186,-204.708"/>
<polygon fill="none" stroke="black" points="475.126,-201.775 465.145,-198.22 470.73,-207.223 475.126,-201.775"/>
</g>
<!-- \\DA\\Console\\Application -->
<g id="node13" class="node"><title>\\DA\\Console\\Application</title>
<a xlink:href="DA.Console.Application.html" xlink:title="Application" target="_parent">
<polygon fill="none" stroke="black" points="869,-394 779,-394 779,-358 869,-358 869,-394"/>
<text text-anchor="middle" x="824" y="-373.1" font-family="Courier,monospace" font-size="11.00">Application</text>
</a>
</g>
<!-- \\Symfony\\Component\\Console\\Application -->
<g id="node43" class="node"><title>\\Symfony\\Component\\Console\\Application</title>
<ellipse fill="none" stroke="black" cx="443" cy="-126" rx="214.96" ry="18.3848"/>
<text text-anchor="middle" x="443" y="-122.4" font-family="Times Roman,serif" font-size="14.00" fill="gray">\Symfony\Component\Console\Application</text>
</g>
<!-- \\DA\\Console\\Application&#45;&gt;\\Symfony\\Component\\Console\\Application -->
<g id="edge27" class="edge"><title>\\DA\\Console\\Application&#45;&gt;\\Symfony\\Component\\Console\\Application</title>
<path fill="none" stroke="black" d="M782.322,-357.878C777.372,-354.463 772.754,-350.517 769,-346 711.322,-276.609 776.231,-209.652 706,-153 694.389,-143.634 681.488,-136.211 667.81,-130.389"/>
<polygon fill="none" stroke="black" points="668.811,-127.021 658.224,-126.609 666.243,-133.533 668.811,-127.021"/>
</g>
<!-- \\DA\\Repository\\Presenca\\Comissao -->
<g id="node17" class="node"><title>\\DA\\Repository\\Presenca\\Comissao</title>
<a xlink:href="DA.Repository.Presenca.Comissao.html" xlink:title="Comissao" target="_parent">
<polygon fill="none" stroke="black" points="859,-812 789,-812 789,-776 859,-776 859,-812"/>
<text text-anchor="middle" x="824" y="-791.1" font-family="Courier,monospace" font-size="11.00">Comissao</text>
</a>
</g>
<!-- \\DA\\Repository\\Presenca -->
<g id="node19" class="node"><title>\\DA\\Repository\\Presenca</title>
<a xlink:href="DA.Repository.Presenca.html" xlink:title="«abstract»&lt;br/&gt;Presenca" target="_parent">
<polygon fill="none" stroke="black" points="485,-842 401,-842 401,-806 485,-806 485,-842"/>
<text text-anchor="start" x="409" y="-829.433" font-family="Courier,monospace" font-size="11.00">«abstract»</text>
<text text-anchor="start" x="415.5" y="-816.233" font-family="Courier,monospace" font-size="11.00">Presenca</text>
</a>
</g>
<!-- \\DA\\Repository\\Presenca\\Comissao&#45;&gt;\\DA\\Repository\\Presenca -->
<g id="edge37" class="edge"><title>\\DA\\Repository\\Presenca\\Comissao&#45;&gt;\\DA\\Repository\\Presenca</title>
<path fill="none" stroke="black" d="M788.499,-796.795C721.228,-802.092 574.877,-813.616 495.963,-819.83"/>
<polygon fill="none" stroke="black" points="495.449,-816.359 485.755,-820.633 495.999,-823.338 495.449,-816.359"/>
</g>
<!-- \\DA\\Repository\\Presenca\\Sessao -->
<g id="node18" class="node"><title>\\DA\\Repository\\Presenca\\Sessao</title>
<a xlink:href="DA.Repository.Presenca.Sessao.html" xlink:title="Sessao" target="_parent">
<polygon fill="none" stroke="black" points="852,-758 796,-758 796,-722 852,-722 852,-758"/>
<text text-anchor="middle" x="824" y="-737.1" font-family="Courier,monospace" font-size="11.00">Sessao</text>
</a>
</g>
<!-- \\DA\\Repository\\Presenca\\Sessao&#45;&gt;\\DA\\Repository\\Presenca -->
<g id="edge39" class="edge"><title>\\DA\\Repository\\Presenca\\Sessao&#45;&gt;\\DA\\Repository\\Presenca</title>
<path fill="none" stroke="black" d="M795.281,-754.023C761.117,-770.683 708.36,-796.331 706,-797 635.057,-817.104 549.585,-822.609 495.755,-823.92"/>
<polygon fill="none" stroke="black" points="495.68,-820.421 485.754,-824.125 495.823,-827.42 495.68,-820.421"/>
</g>
<!-- \\DA\\Repository\\Repository -->
<g id="node20" class="node"><title>\\DA\\Repository\\Repository</title>
<a xlink:href="DA.Repository.Repository.html" xlink:title="Repository" target="_parent">
<polygon fill="none" stroke="black" points="108,-788 24,-788 24,-752 108,-752 108,-788"/>
<text text-anchor="middle" x="66" y="-767.1" font-family="Courier,monospace" font-size="11.00">Repository</text>
</a>
</g>
<!-- \\DA\\Repository\\Presenca&#45;&gt;\\DA\\Repository\\Repository -->
<g id="edge31" class="edge"><title>\\DA\\Repository\\Presenca&#45;&gt;\\DA\\Repository\\Repository</title>
<path fill="none" stroke="black" d="M400.409,-821.341C348.204,-817.688 257.165,-810.042 180,-797 159.592,-793.551 137.395,-788.577 118.057,-783.837"/>
<polygon fill="none" stroke="black" points="118.778,-780.41 108.229,-781.388 117.086,-787.202 118.778,-780.41"/>
</g>
<!-- \\DA\\Repository\\Legislatura -->
<g id="node21" class="node"><title>\\DA\\Repository\\Legislatura</title>
<a xlink:href="DA.Repository.Legislatura.html" xlink:title="Legislatura" target="_parent">
<polygon fill="none" stroke="black" points="488,-788 398,-788 398,-752 488,-752 488,-788"/>
<text text-anchor="middle" x="443" y="-767.1" font-family="Courier,monospace" font-size="11.00">Legislatura</text>
</a>
</g>
<!-- \\DA\\Repository\\Legislatura&#45;&gt;\\DA\\Repository\\Repository -->
<g id="edge33" class="edge"><title>\\DA\\Repository\\Legislatura&#45;&gt;\\DA\\Repository\\Repository</title>
<path fill="none" stroke="black" d="M397.149,-770C326.68,-770 192.157,-770 118.1,-770"/>
<polygon fill="none" stroke="black" points="118.064,-766.5 108.064,-770 118.064,-773.5 118.064,-766.5"/>
</g>
<!-- \\DA\\Repository\\Deputado -->
<g id="node22" class="node"><title>\\DA\\Repository\\Deputado</title>
<a xlink:href="DA.Repository.Deputado.html" xlink:title="Deputado" target="_parent">
<polygon fill="none" stroke="black" points="478,-734 408,-734 408,-698 478,-698 478,-734"/>
<text text-anchor="middle" x="443" y="-713.1" font-family="Courier,monospace" font-size="11.00">Deputado</text>
</a>
</g>
<!-- \\DA\\Repository\\Deputado&#45;&gt;\\DA\\Repository\\Repository -->
<g id="edge35" class="edge"><title>\\DA\\Repository\\Deputado&#45;&gt;\\DA\\Repository\\Repository</title>
<path fill="none" stroke="black" d="M407.495,-718.171C356.778,-721.606 260.785,-729.346 180,-743 159.592,-746.449 137.395,-751.423 118.057,-756.163"/>
<polygon fill="none" stroke="black" points="117.086,-752.798 108.229,-758.612 118.778,-759.59 117.086,-752.798"/>
</g>
<!-- \\DA\\Scrapper\\Presenca\\Comissao -->
<g id="node25" class="node"><title>\\DA\\Scrapper\\Presenca\\Comissao</title>
<a xlink:href="DA.Scrapper.Presenca.Comissao.html" xlink:title="Comissao" target="_parent">
<polygon fill="none" stroke="black" points="859,-622 789,-622 789,-586 859,-586 859,-622"/>
<text text-anchor="middle" x="824" y="-601.1" font-family="Courier,monospace" font-size="11.00">Comissao</text>
</a>
</g>
<!-- \\DA\\Scrapper\\Presenca -->
<g id="node28" class="node"><title>\\DA\\Scrapper\\Presenca</title>
<a xlink:href="DA.Scrapper.Presenca.html" xlink:title="«abstract»&lt;br/&gt;Presenca" target="_parent">
<polygon fill="none" stroke="black" points="485,-618 401,-618 401,-582 485,-582 485,-618"/>
<text text-anchor="start" x="409" y="-605.433" font-family="Courier,monospace" font-size="11.00">«abstract»</text>
<text text-anchor="start" x="415.5" y="-592.233" font-family="Courier,monospace" font-size="11.00">Presenca</text>
</a>
</g>
<!-- \\DA\\Scrapper\\Presenca\\Comissao&#45;&gt;\\DA\\Scrapper\\Presenca -->
<g id="edge19" class="edge"><title>\\DA\\Scrapper\\Presenca\\Comissao&#45;&gt;\\DA\\Scrapper\\Presenca</title>
<path fill="none" stroke="black" d="M788.499,-603.627C721.228,-602.921 574.877,-601.385 495.963,-600.556"/>
<polygon fill="none" stroke="black" points="495.791,-597.054 485.755,-600.449 495.718,-604.054 495.791,-597.054"/>
</g>
<!-- \\DA\\Scrapper\\Presenca\\Sessao -->
<g id="node26" class="node"><title>\\DA\\Scrapper\\Presenca\\Sessao</title>
<a xlink:href="DA.Scrapper.Presenca.Sessao.html" xlink:title="Sessao" target="_parent">
<polygon fill="none" stroke="black" points="852,-568 796,-568 796,-532 852,-532 852,-568"/>
<text text-anchor="middle" x="824" y="-547.1" font-family="Courier,monospace" font-size="11.00">Sessao</text>
</a>
</g>
<!-- \\DA\\Scrapper\\Presenca\\Sessao&#45;&gt;\\DA\\Scrapper\\Presenca -->
<g id="edge21" class="edge"><title>\\DA\\Scrapper\\Presenca\\Sessao&#45;&gt;\\DA\\Scrapper\\Presenca</title>
<path fill="none" stroke="black" d="M795.03,-556.404C771.22,-561.485 736.555,-568.463 706,-573 633.428,-583.775 548.948,-591.621 495.725,-595.995"/>
<polygon fill="none" stroke="black" points="495.194,-592.526 485.509,-596.823 495.759,-599.503 495.194,-592.526"/>
</g>
<!-- \\DA\\Scrapper\\Scrapper -->
<g id="node27" class="node"><title>\\DA\\Scrapper\\Scrapper</title>
<a xlink:href="DA.Scrapper.Scrapper.html" xlink:title="Scrapper" target="_parent">
<polygon fill="none" stroke="black" points="101,-591 31,-591 31,-555 101,-555 101,-591"/>
<text text-anchor="middle" x="66" y="-570.1" font-family="Courier,monospace" font-size="11.00">Scrapper</text>
</a>
</g>
<!-- \\DA\\Scrapper\\Presenca&#45;&gt;\\DA\\Scrapper\\Scrapper -->
<g id="edge15" class="edge"><title>\\DA\\Scrapper\\Presenca&#45;&gt;\\DA\\Scrapper\\Scrapper</title>
<path fill="none" stroke="black" d="M400.486,-596.955C329.088,-591.842 185.693,-581.572 112.015,-576.296"/>
<polygon fill="none" stroke="black" points="111.892,-572.778 101.668,-575.554 111.392,-579.76 111.892,-572.778"/>
</g>
<!-- \\DA\\Scrapper\\Deputado -->
<g id="node29" class="node"><title>\\DA\\Scrapper\\Deputado</title>
<a xlink:href="DA.Scrapper.Deputado.html" xlink:title="Deputado" target="_parent">
<polygon fill="none" stroke="black" points="478,-564 408,-564 408,-528 478,-528 478,-564"/>
<text text-anchor="middle" x="443" y="-543.1" font-family="Courier,monospace" font-size="11.00">Deputado</text>
</a>
</g>
<!-- \\DA\\Scrapper\\Deputado&#45;&gt;\\DA\\Scrapper\\Scrapper -->
<g id="edge17" class="edge"><title>\\DA\\Scrapper\\Deputado&#45;&gt;\\DA\\Scrapper\\Scrapper</title>
<path fill="none" stroke="black" d="M407.193,-548.564C338.38,-553.493 187.768,-564.279 111.779,-569.721"/>
<polygon fill="none" stroke="black" points="111.292,-566.247 101.568,-570.453 111.793,-573.229 111.292,-566.247"/>
</g>
<!-- \\DA\\Util\\Registry -->
<g id="node31" class="node"><title>\\DA\\Util\\Registry</title>
<a xlink:href="DA.Util.Registry.html" xlink:title="Registry" target="_parent">
<polygon fill="none" stroke="black" points="859,-312 789,-312 789,-276 859,-276 859,-312"/>
<text text-anchor="middle" x="824" y="-291.1" font-family="Courier,monospace" font-size="11.00">Registry</text>
</a>
</g>
<!-- \\ArrayObject -->
<g id="node39" class="node"><title>\\ArrayObject</title>
<ellipse fill="none" stroke="black" cx="443" cy="-72" rx="72.832" ry="18.3848"/>
<text text-anchor="middle" x="443" y="-68.4" font-family="Times Roman,serif" font-size="14.00" fill="gray">\ArrayObject</text>
</g>
<!-- \\DA\\Util\\Registry&#45;&gt;\\ArrayObject -->
<g id="edge23" class="edge"><title>\\DA\\Util\\Registry&#45;&gt;\\ArrayObject</title>
<path fill="none" stroke="black" d="M788.433,-281.457C781.299,-277.674 774.359,-272.91 769,-267 715.43,-207.93 769.136,-147.714 706,-99 651.406,-56.8771 570.317,-54.8945 512.629,-60.4468"/>
<polygon fill="none" stroke="black" points="512.077,-56.9856 502.503,-61.5213 512.816,-63.9466 512.077,-56.9856"/>
</g>
<!-- \\DA\\Util\\Config -->
<g id="node32" class="node"><title>\\DA\\Util\\Config</title>
<a xlink:href="DA.Util.Config.html" xlink:title="Config" target="_parent">
<polygon fill="none" stroke="black" points="852,-258 796,-258 796,-222 852,-222 852,-258"/>
<text text-anchor="middle" x="824" y="-237.1" font-family="Courier,monospace" font-size="11.00">Config</text>
</a>
</g>
<!-- \\Pimple -->
<g id="node41" class="node"><title>\\Pimple</title>
<ellipse fill="none" stroke="black" cx="443" cy="-18" rx="46.1672" ry="18.3848"/>
<text text-anchor="middle" x="443" y="-14.4" font-family="Times Roman,serif" font-size="14.00" fill="gray">\Pimple</text>
</g>
<!-- \\DA\\Util\\Config&#45;&gt;\\Pimple -->
<g id="edge25" class="edge"><title>\\DA\\Util\\Config&#45;&gt;\\Pimple</title>
<path fill="none" stroke="black" d="M819.04,-221.869C807.102,-182.065 772.697,-87.2308 706,-45 642.66,-4.89424 553.084,-4.97431 496.535,-10.2872"/>
<polygon fill="none" stroke="black" points="495.964,-6.8274 486.374,-11.3316 496.68,-13.7907 495.964,-6.8274"/>
</g>
</g>
</svg>
