<?xml version="1.0" encoding="UTF-8" standalone="no"?>
<!DOCTYPE svg PUBLIC "-//W3C//DTD SVG 1.1//EN"
 "http://www.w3.org/Graphics/SVG/1.1/DTD/svg11.dtd">
<!-- Generated by graphviz version 2.26.3 (20100126.1600)
 -->
<!-- Title: G Pages: 1 -->
<svg width="968pt" height="1444pt"
 viewBox="0.00 0.00 968.00 1444.00" xmlns="http://www.w3.org/2000/svg" xmlns:xlink="http://www.w3.org/1999/xlink">
<g id="graph1" class="graph" transform="scale(1 1) rotate(0) translate(4 1440)">
<title>G</title>
<polygon fill="white" stroke="white" points="-4,5 -4,-1440 965,-1440 965,5 -4,5"/>
<g id="graph2" class="cluster"><title>cluster_DA</title>
<polyline fill="none" stroke="gray" points="20,-260 940,-260 "/>
<path fill="none" stroke="gray" d="M940,-260C946,-260 952,-266 952,-272"/>
<polyline fill="none" stroke="gray" points="952,-272 952,-1416 "/>
<path fill="none" stroke="gray" d="M952,-1416C952,-1422 946,-1428 940,-1428"/>
<polyline fill="none" stroke="gray" points="940,-1428 20,-1428 "/>
<path fill="none" stroke="gray" d="M20,-1428C14,-1428 8,-1422 8,-1416"/>
<polyline fill="none" stroke="gray" points="8,-1416 8,-272 "/>
<path fill="none" stroke="gray" d="M8,-272C8,-266 14,-260 20,-260"/>
<text text-anchor="middle" x="480" y="-1414.1" font-family="Times Roman,serif" font-size="11.00" fill="gray">DA</text>
</g>
<g id="graph3" class="cluster"><title>cluster_DA\Builder</title>
<polyline fill="none" stroke="gray" points="38,-1232 897,-1232 "/>
<path fill="none" stroke="gray" d="M897,-1232C903,-1232 909,-1238 909,-1244"/>
<polyline fill="none" stroke="gray" points="909,-1244 909,-1386 "/>
<path fill="none" stroke="gray" d="M909,-1386C909,-1392 903,-1398 897,-1398"/>
<polyline fill="none" stroke="gray" points="897,-1398 38,-1398 "/>
<path fill="none" stroke="gray" d="M38,-1398C32,-1398 26,-1392 26,-1386"/>
<polyline fill="none" stroke="gray" points="26,-1386 26,-1244 "/>
<path fill="none" stroke="gray" d="M26,-1244C26,-1238 32,-1232 38,-1232"/>
<text text-anchor="middle" x="467.5" y="-1384.1" font-family="Times Roman,serif" font-size="11.00" fill="gray">Builder</text>
</g>
<g id="graph4" class="cluster"><title>cluster_DA\Builder\Presenca</title>
<polyline fill="none" stroke="gray" points="825,-1240 889,-1240 "/>
<path fill="none" stroke="gray" d="M889,-1240C895,-1240 901,-1246 901,-1252"/>
<polyline fill="none" stroke="gray" points="901,-1252 901,-1356 "/>
<path fill="none" stroke="gray" d="M901,-1356C901,-1362 895,-1368 889,-1368"/>
<polyline fill="none" stroke="gray" points="889,-1368 825,-1368 "/>
<path fill="none" stroke="gray" d="M825,-1368C819,-1368 813,-1362 813,-1356"/>
<polyline fill="none" stroke="gray" points="813,-1356 813,-1252 "/>
<path fill="none" stroke="gray" d="M813,-1252C813,-1246 819,-1240 825,-1240"/>
<text text-anchor="middle" x="857" y="-1354.1" font-family="Times Roman,serif" font-size="11.00" fill="gray">Presenca</text>
</g>
<g id="graph6" class="cluster"><title>cluster_DA\Console</title>
<polyline fill="none" stroke="gray" points="814,-702 900,-702 "/>
<path fill="none" stroke="gray" d="M900,-702C906,-702 912,-708 912,-714"/>
<polyline fill="none" stroke="gray" points="912,-714 912,-848 "/>
<path fill="none" stroke="gray" d="M912,-848C912,-854 906,-860 900,-860"/>
<polyline fill="none" stroke="gray" points="900,-860 814,-860 "/>
<path fill="none" stroke="gray" d="M814,-860C808,-860 802,-854 802,-848"/>
<polyline fill="none" stroke="gray" points="802,-848 802,-714 "/>
<path fill="none" stroke="gray" d="M802,-714C802,-708 808,-702 814,-702"/>
<text text-anchor="middle" x="857" y="-846.1" font-family="Times Roman,serif" font-size="11.00" fill="gray">Console</text>
</g>
<g id="graph7" class="cluster"><title>cluster_DA\Console\Command</title>
<polyline fill="none" stroke="gray" points="822,-756 892,-756 "/>
<path fill="none" stroke="gray" d="M892,-756C898,-756 904,-762 904,-768"/>
<polyline fill="none" stroke="gray" points="904,-768 904,-818 "/>
<path fill="none" stroke="gray" d="M904,-818C904,-824 898,-830 892,-830"/>
<polyline fill="none" stroke="gray" points="892,-830 822,-830 "/>
<path fill="none" stroke="gray" d="M822,-830C816,-830 810,-824 810,-818"/>
<polyline fill="none" stroke="gray" points="810,-818 810,-768 "/>
<path fill="none" stroke="gray" d="M810,-768C810,-762 816,-756 822,-756"/>
<text text-anchor="middle" x="857" y="-816.1" font-family="Times Roman,serif" font-size="11.00" fill="gray">Command</text>
</g>
<g id="graph9" class="cluster"><title>cluster_DA\Migration</title>
<polyline fill="none" stroke="gray" points="782,-404 932,-404 "/>
<path fill="none" stroke="gray" d="M932,-404C938,-404 944,-410 944,-416"/>
<polyline fill="none" stroke="gray" points="944,-416 944,-682 "/>
<path fill="none" stroke="gray" d="M944,-682C944,-688 938,-694 932,-694"/>
<polyline fill="none" stroke="gray" points="932,-694 782,-694 "/>
<path fill="none" stroke="gray" d="M782,-694C776,-694 770,-688 770,-682"/>
<polyline fill="none" stroke="gray" points="770,-682 770,-416 "/>
<path fill="none" stroke="gray" d="M770,-416C770,-410 776,-404 782,-404"/>
<text text-anchor="middle" x="857" y="-680.1" font-family="Times Roman,serif" font-size="11.00" fill="gray">Migration</text>
</g>
<g id="graph10" class="cluster"><title>cluster_DA\Repository</title>
<polyline fill="none" stroke="gray" points="28,-1042 897,-1042 "/>
<path fill="none" stroke="gray" d="M897,-1042C903,-1042 909,-1048 909,-1054"/>
<polyline fill="none" stroke="gray" points="909,-1054 909,-1212 "/>
<path fill="none" stroke="gray" d="M909,-1212C909,-1218 903,-1224 897,-1224"/>
<polyline fill="none" stroke="gray" points="897,-1224 28,-1224 "/>
<path fill="none" stroke="gray" d="M28,-1224C22,-1224 16,-1218 16,-1212"/>
<polyline fill="none" stroke="gray" points="16,-1212 16,-1054 "/>
<path fill="none" stroke="gray" d="M16,-1054C16,-1048 22,-1042 28,-1042"/>
<text text-anchor="middle" x="462.5" y="-1210.1" font-family="Times Roman,serif" font-size="11.00" fill="gray">Repository</text>
</g>
<g id="graph11" class="cluster"><title>cluster_DA\Repository\Presenca</title>
<polyline fill="none" stroke="gray" points="825,-1066 889,-1066 "/>
<path fill="none" stroke="gray" d="M889,-1066C895,-1066 901,-1072 901,-1078"/>
<polyline fill="none" stroke="gray" points="901,-1078 901,-1182 "/>
<path fill="none" stroke="gray" d="M901,-1182C901,-1188 895,-1194 889,-1194"/>
<polyline fill="none" stroke="gray" points="889,-1194 825,-1194 "/>
<path fill="none" stroke="gray" d="M825,-1194C819,-1194 813,-1188 813,-1182"/>
<polyline fill="none" stroke="gray" points="813,-1182 813,-1078 "/>
<path fill="none" stroke="gray" d="M813,-1078C813,-1072 819,-1066 825,-1066"/>
<text text-anchor="middle" x="857" y="-1180.1" font-family="Times Roman,serif" font-size="11.00" fill="gray">Presenca</text>
</g>
<g id="graph12" class="cluster"><title>cluster_DA\Scrapper</title>
<polyline fill="none" stroke="gray" points="34,-868 897,-868 "/>
<path fill="none" stroke="gray" d="M897,-868C903,-868 909,-874 909,-880"/>
<polyline fill="none" stroke="gray" points="909,-880 909,-1022 "/>
<path fill="none" stroke="gray" d="M909,-1022C909,-1028 903,-1034 897,-1034"/>
<polyline fill="none" stroke="gray" points="897,-1034 34,-1034 "/>
<path fill="none" stroke="gray" d="M34,-1034C28,-1034 22,-1028 22,-1022"/>
<polyline fill="none" stroke="gray" points="22,-1022 22,-880 "/>
<path fill="none" stroke="gray" d="M22,-880C22,-874 28,-868 34,-868"/>
<text text-anchor="middle" x="465.5" y="-1020.1" font-family="Times Roman,serif" font-size="11.00" fill="gray">Scrapper</text>
</g>
<g id="graph13" class="cluster"><title>cluster_DA\Scrapper\Presenca</title>
<polyline fill="none" stroke="gray" points="825,-876 889,-876 "/>
<path fill="none" stroke="gray" d="M889,-876C895,-876 901,-882 901,-888"/>
<polyline fill="none" stroke="gray" points="901,-888 901,-992 "/>
<path fill="none" stroke="gray" d="M901,-992C901,-998 895,-1004 889,-1004"/>
<polyline fill="none" stroke="gray" points="889,-1004 825,-1004 "/>
<path fill="none" stroke="gray" d="M825,-1004C819,-1004 813,-998 813,-992"/>
<polyline fill="none" stroke="gray" points="813,-992 813,-888 "/>
<path fill="none" stroke="gray" d="M813,-888C813,-882 819,-876 825,-876"/>
<text text-anchor="middle" x="857" y="-990.1" font-family="Times Roman,serif" font-size="11.00" fill="gray">Presenca</text>
</g>
<g id="graph14" class="cluster"><title>cluster_DA\Util</title>
<polyline fill="none" stroke="gray" points="825,-268 889,-268 "/>
<path fill="none" stroke="gray" d="M889,-268C895,-268 901,-274 901,-280"/>
<polyline fill="none" stroke="gray" points="901,-280 901,-384 "/>
<path fill="none" stroke="gray" d="M901,-384C901,-390 895,-396 889,-396"/>
<polyline fill="none" stroke="gray" points="889,-396 825,-396 "/>
<path fill="none" stroke="gray" d="M825,-396C819,-396 813,-390 813,-384"/>
<polyline fill="none" stroke="gray" points="813,-384 813,-280 "/>
<path fill="none" stroke="gray" d="M813,-280C813,-274 819,-268 825,-268"/>
<text text-anchor="middle" x="857" y="-382.1" font-family="Times Roman,serif" font-size="11.00" fill="gray">Util</text>
</g>
<!-- \\DA\\Builder\\Presenca\\Comissao -->
<g id="node4" class="node"><title>\\DA\\Builder\\Presenca\\Comissao</title>
<a xlink:href="DA.Builder.Presenca.Comissao.html" xlink:title="Comissao" target="_parent">
<polygon fill="none" stroke="black" points="892,-1338 822,-1338 822,-1302 892,-1302 892,-1338"/>
<text text-anchor="middle" x="857" y="-1317.1" font-family="Courier,monospace" font-size="11.00">Comissao</text>
</a>
</g>
<!-- \\DA\\Builder\\Presenca -->
<g id="node6" class="node"><title>\\DA\\Builder\\Presenca</title>
<a xlink:href="DA.Builder.Presenca.html" xlink:title="«abstract»&lt;br/&gt;Presenca" target="_parent">
<polygon fill="none" stroke="black" points="485,-1334 401,-1334 401,-1298 485,-1298 485,-1334"/>
<text text-anchor="start" x="409" y="-1321.43" font-family="Courier,monospace" font-size="11.00">«abstract»</text>
<text text-anchor="start" x="415.5" y="-1308.23" font-family="Courier,monospace" font-size="11.00">Presenca</text>
</a>
</g>
<!-- \\DA\\Builder\\Presenca\\Comissao&#45;&gt;\\DA\\Builder\\Presenca -->
<g id="edge56" class="edge"><title>\\DA\\Builder\\Presenca\\Comissao&#45;&gt;\\DA\\Builder\\Presenca</title>
<path fill="none" stroke="black" d="M821.344,-1319.66C748.311,-1318.95 581.392,-1317.34 495.778,-1316.51"/>
<polygon fill="none" stroke="black" points="495.785,-1313.01 485.752,-1316.41 495.717,-1320.01 495.785,-1313.01"/>
</g>
<!-- \\DA\\Builder\\Presenca\\Sessao -->
<g id="node5" class="node"><title>\\DA\\Builder\\Presenca\\Sessao</title>
<a xlink:href="DA.Builder.Presenca.Sessao.html" xlink:title="Sessao" target="_parent">
<polygon fill="none" stroke="black" points="885,-1284 829,-1284 829,-1248 885,-1248 885,-1284"/>
<text text-anchor="middle" x="857" y="-1263.1" font-family="Courier,monospace" font-size="11.00">Sessao</text>
</a>
</g>
<!-- \\DA\\Builder\\Presenca\\Sessao&#45;&gt;\\DA\\Builder\\Presenca -->
<g id="edge58" class="edge"><title>\\DA\\Builder\\Presenca\\Sessao&#45;&gt;\\DA\\Builder\\Presenca</title>
<path fill="none" stroke="black" d="M828.392,-1270.78C798.066,-1275.75 748.746,-1283.55 706,-1289 633.434,-1298.25 549.288,-1306.44 496.105,-1311.32"/>
<polygon fill="none" stroke="black" points="495.536,-1307.85 485.894,-1312.25 496.17,-1314.82 495.536,-1307.85"/>
</g>
<!-- \\DA\\Builder\\Builder -->
<g id="node7" class="node"><title>\\DA\\Builder\\Builder</title>
<a xlink:href="DA.Builder.Builder.html" xlink:title="Builder" target="_parent">
<polygon fill="none" stroke="black" points="98,-1307 34,-1307 34,-1271 98,-1271 98,-1307"/>
<text text-anchor="middle" x="66" y="-1286.1" font-family="Courier,monospace" font-size="11.00">Builder</text>
</a>
</g>
<!-- \\DA\\Builder\\Presenca&#45;&gt;\\DA\\Builder\\Builder -->
<g id="edge52" class="edge"><title>\\DA\\Builder\\Presenca&#45;&gt;\\DA\\Builder\\Builder</title>
<path fill="none" stroke="black" d="M400.486,-1312.96C327.895,-1307.76 180.881,-1297.23 108.381,-1292.04"/>
<polygon fill="none" stroke="black" points="108.467,-1288.53 98.2427,-1291.31 107.967,-1295.51 108.467,-1288.53"/>
</g>
<!-- \\DA\\Builder\\Deputado -->
<g id="node8" class="node"><title>\\DA\\Builder\\Deputado</title>
<a xlink:href="DA.Builder.Deputado.html" xlink:title="Deputado" target="_parent">
<polygon fill="none" stroke="black" points="478,-1280 408,-1280 408,-1244 478,-1244 478,-1280"/>
<text text-anchor="middle" x="443" y="-1259.1" font-family="Courier,monospace" font-size="11.00">Deputado</text>
</a>
</g>
<!-- \\DA\\Builder\\Deputado&#45;&gt;\\DA\\Builder\\Builder -->
<g id="edge54" class="edge"><title>\\DA\\Builder\\Deputado&#45;&gt;\\DA\\Builder\\Builder</title>
<path fill="none" stroke="black" d="M407.193,-1264.56C337.239,-1269.57 182.75,-1280.64 108.061,-1285.99"/>
<polygon fill="none" stroke="black" points="107.793,-1282.5 98.0688,-1286.7 108.293,-1289.48 107.793,-1282.5"/>
</g>
<!-- \\DA\\Console\\Command\\Atualizar -->
<g id="node12" class="node"><title>\\DA\\Console\\Command\\Atualizar</title>
<a xlink:href="DA.Console.Command.Atualizar.html" xlink:title="Atualizar" target="_parent">
<polygon fill="none" stroke="black" points="895,-800 819,-800 819,-764 895,-764 895,-800"/>
<text text-anchor="middle" x="857" y="-779.1" font-family="Courier,monospace" font-size="11.00">Atualizar</text>
</a>
</g>
<!-- \\Symfony\\Component\\Console\\Command\\Command -->
<g id="node57" class="node"><title>\\Symfony\\Component\\Console\\Command\\Command</title>
<ellipse fill="none" stroke="black" cx="443" cy="-234" rx="261.837" ry="18.3848"/>
<text text-anchor="middle" x="443" y="-230.4" font-family="Times Roman,serif" font-size="14.00" fill="gray">\Symfony\Component\Console\Command\Command</text>
</g>
<!-- \\DA\\Console\\Command\\Atualizar&#45;&gt;\\Symfony\\Component\\Console\\Command\\Command -->
<g id="edge40" class="edge"><title>\\DA\\Console\\Command\\Atualizar&#45;&gt;\\Symfony\\Component\\Console\\Command\\Command</title>
<path fill="none" stroke="black" d="M818.323,-778.642C802.173,-775.695 783.962,-770.204 770,-760 584.824,-624.663 481.211,-349.678 451.801,-261.719"/>
<polygon fill="none" stroke="black" points="455.109,-260.574 448.656,-252.171 448.46,-262.764 455.109,-260.574"/>
</g>
<!-- \\DA\\Console\\Application -->
<g id="node13" class="node"><title>\\DA\\Console\\Application</title>
<a xlink:href="DA.Console.Application.html" xlink:title="Application" target="_parent">
<polygon fill="none" stroke="black" points="902,-746 812,-746 812,-710 902,-710 902,-746"/>
<text text-anchor="middle" x="857" y="-725.1" font-family="Courier,monospace" font-size="11.00">Application</text>
</a>
</g>
<!-- \\Symfony\\Component\\Console\\Application -->
<g id="node55" class="node"><title>\\Symfony\\Component\\Console\\Application</title>
<ellipse fill="none" stroke="black" cx="443" cy="-180" rx="214.96" ry="18.3848"/>
<text text-anchor="middle" x="443" y="-176.4" font-family="Times Roman,serif" font-size="14.00" fill="gray">\Symfony\Component\Console\Application</text>
</g>
<!-- \\DA\\Console\\Application&#45;&gt;\\Symfony\\Component\\Console\\Application -->
<g id="edge38" class="edge"><title>\\DA\\Console\\Application&#45;&gt;\\Symfony\\Component\\Console\\Application</title>
<path fill="none" stroke="black" d="M811.157,-722.077C795.892,-717.812 780.199,-710.505 770,-698 630.909,-527.46 863.722,-360.472 706,-207 663.728,-165.867 597.627,-159.225 542.27,-162.812"/>
<polygon fill="none" stroke="black" points="541.77,-159.34 532.067,-163.595 542.306,-166.32 541.77,-159.34"/>
</g>
<!-- \\DA\\Migration\\Version20130517220746 -->
<g id="node16" class="node"><title>\\DA\\Migration\\Version20130517220746</title>
<a xlink:href="DA.Migration.Version20130517220746.html" xlink:title="Version20130517220746" target="_parent">
<polygon fill="none" stroke="black" points="936,-664 778,-664 778,-628 936,-628 936,-664"/>
<text text-anchor="middle" x="857" y="-643.1" font-family="Courier,monospace" font-size="11.00">Version20130517220746</text>
</a>
</g>
<!-- \\Doctrine\\DBAL\\Migrations\\AbstractMigration -->
<g id="node41" class="node"><title>\\Doctrine\\DBAL\\Migrations\\AbstractMigration</title>
<ellipse fill="none" stroke="black" cx="443" cy="-126" rx="231.931" ry="18.3848"/>
<text text-anchor="middle" x="443" y="-122.4" font-family="Times Roman,serif" font-size="14.00" fill="gray">\Doctrine\DBAL\Migrations\AbstractMigration</text>
</g>
<!-- \\DA\\Migration\\Version20130517220746&#45;&gt;\\Doctrine\\DBAL\\Migrations\\AbstractMigration -->
<g id="edge16" class="edge"><title>\\DA\\Migration\\Version20130517220746&#45;&gt;\\Doctrine\\DBAL\\Migrations\\AbstractMigration</title>
<path fill="none" stroke="black" d="M779.709,-627.936C776.141,-625.34 772.863,-622.378 770,-619 634.815,-459.535 856.329,-298.276 706,-153 664.286,-112.688 599.659,-105.598 544.91,-108.753"/>
<polygon fill="none" stroke="black" points="544.543,-105.27 534.81,-109.456 545.028,-112.253 544.543,-105.27"/>
</g>
<!-- \\DA\\Migration\\Version20130517195435 -->
<g id="node17" class="node"><title>\\DA\\Migration\\Version20130517195435</title>
<a xlink:href="DA.Migration.Version20130517195435.html" xlink:title="Version20130517195435" target="_parent">
<polygon fill="none" stroke="black" points="936,-610 778,-610 778,-574 936,-574 936,-610"/>
<text text-anchor="middle" x="857" y="-589.1" font-family="Courier,monospace" font-size="11.00">Version20130517195435</text>
</a>
</g>
<!-- \\DA\\Migration\\Version20130517195435&#45;&gt;\\Doctrine\\DBAL\\Migrations\\AbstractMigration -->
<g id="edge18" class="edge"><title>\\DA\\Migration\\Version20130517195435&#45;&gt;\\Doctrine\\DBAL\\Migrations\\AbstractMigration</title>
<path fill="none" stroke="black" d="M779.779,-573.876C776.194,-571.294 772.893,-568.352 770,-565 648.931,-424.711 840.382,-280.594 706,-153 664.559,-113.652 601.222,-106.19 547.087,-108.907"/>
<polygon fill="none" stroke="black" points="546.858,-105.414 537.094,-109.527 547.292,-112.401 546.858,-105.414"/>
</g>
<!-- \\DA\\Migration\\Version20130517221811 -->
<g id="node18" class="node"><title>\\DA\\Migration\\Version20130517221811</title>
<a xlink:href="DA.Migration.Version20130517221811.html" xlink:title="Version20130517221811" target="_parent">
<polygon fill="none" stroke="black" points="936,-556 778,-556 778,-520 936,-520 936,-556"/>
<text text-anchor="middle" x="857" y="-535.1" font-family="Courier,monospace" font-size="11.00">Version20130517221811</text>
</a>
</g>
<!-- \\DA\\Migration\\Version20130517221811&#45;&gt;\\Doctrine\\DBAL\\Migrations\\AbstractMigration -->
<g id="edge20" class="edge"><title>\\DA\\Migration\\Version20130517221811&#45;&gt;\\Doctrine\\DBAL\\Migrations\\AbstractMigration</title>
<path fill="none" stroke="black" d="M779.87,-519.797C776.262,-517.235 772.931,-514.319 770,-511 663.01,-389.845 824.475,-262.951 706,-153 665.069,-115.014 603.645,-107.035 550.449,-109.12"/>
<polygon fill="none" stroke="black" points="550.08,-105.635 540.273,-109.644 550.44,-112.625 550.08,-105.635"/>
</g>
<!-- \\DA\\Migration\\Version20130517220207 -->
<g id="node19" class="node"><title>\\DA\\Migration\\Version20130517220207</title>
<a xlink:href="DA.Migration.Version20130517220207.html" xlink:title="Version20130517220207" target="_parent">
<polygon fill="none" stroke="black" points="936,-502 778,-502 778,-466 936,-466 936,-502"/>
<text text-anchor="middle" x="857" y="-481.1" font-family="Courier,monospace" font-size="11.00">Version20130517220207</text>
</a>
</g>
<!-- \\DA\\Migration\\Version20130517220207&#45;&gt;\\Doctrine\\DBAL\\Migrations\\AbstractMigration -->
<g id="edge22" class="edge"><title>\\DA\\Migration\\Version20130517220207&#45;&gt;\\Doctrine\\DBAL\\Migrations\\AbstractMigration</title>
<path fill="none" stroke="black" d="M780.38,-465.959C776.593,-463.36 773.088,-460.391 770,-457 677.033,-354.915 808.63,-245.364 706,-153 697.92,-145.729 689.085,-139.571 679.703,-134.385"/>
<polygon fill="none" stroke="black" points="681.044,-131.139 670.547,-129.704 677.858,-137.372 681.044,-131.139"/>
</g>
<!-- \\DA\\Migration\\Version20130517222924 -->
<g id="node20" class="node"><title>\\DA\\Migration\\Version20130517222924</title>
<a xlink:href="DA.Migration.Version20130517222924.html" xlink:title="Version20130517222924" target="_parent">
<polygon fill="none" stroke="black" points="936,-448 778,-448 778,-412 936,-412 936,-448"/>
<text text-anchor="middle" x="857" y="-427.1" font-family="Courier,monospace" font-size="11.00">Version20130517222924</text>
</a>
</g>
<!-- \\DA\\Migration\\Version20130517222924&#45;&gt;\\Doctrine\\DBAL\\Migrations\\AbstractMigration -->
<g id="edge24" class="edge"><title>\\DA\\Migration\\Version20130517222924&#45;&gt;\\Doctrine\\DBAL\\Migrations\\AbstractMigration</title>
<path fill="none" stroke="black" d="M784.973,-411.991C779.445,-408.652 774.338,-404.693 770,-400 693.021,-316.726 792.017,-226.901 706,-153 697.537,-145.729 688.31,-139.595 678.54,-134.449"/>
<polygon fill="none" stroke="black" points="679.943,-131.239 669.421,-129.995 676.871,-137.529 679.943,-131.239"/>
</g>
<!-- \\DA\\Repository\\Presenca\\Comissao -->
<g id="node23" class="node"><title>\\DA\\Repository\\Presenca\\Comissao</title>
<a xlink:href="DA.Repository.Presenca.Comissao.html" xlink:title="Comissao" target="_parent">
<polygon fill="none" stroke="black" points="892,-1164 822,-1164 822,-1128 892,-1128 892,-1164"/>
<text text-anchor="middle" x="857" y="-1143.1" font-family="Courier,monospace" font-size="11.00">Comissao</text>
</a>
</g>
<!-- \\DA\\Repository\\Presenca -->
<g id="node25" class="node"><title>\\DA\\Repository\\Presenca</title>
<a xlink:href="DA.Repository.Presenca.html" xlink:title="«abstract»&lt;br/&gt;Presenca" target="_parent">
<polygon fill="none" stroke="black" points="485,-1194 401,-1194 401,-1158 485,-1158 485,-1194"/>
<text text-anchor="start" x="409" y="-1181.43" font-family="Courier,monospace" font-size="11.00">«abstract»</text>
<text text-anchor="start" x="415.5" y="-1168.23" font-family="Courier,monospace" font-size="11.00">Presenca</text>
</a>
</g>
<!-- \\DA\\Repository\\Presenca\\Comissao&#45;&gt;\\DA\\Repository\\Presenca -->
<g id="edge48" class="edge"><title>\\DA\\Repository\\Presenca\\Comissao&#45;&gt;\\DA\\Repository\\Presenca</title>
<path fill="none" stroke="black" d="M821.344,-1148.58C748.311,-1153.88 581.392,-1165.97 495.778,-1172.18"/>
<polygon fill="none" stroke="black" points="495.472,-1168.69 485.752,-1172.9 495.978,-1175.67 495.472,-1168.69"/>
</g>
<!-- \\DA\\Repository\\Presenca\\Sessao -->
<g id="node24" class="node"><title>\\DA\\Repository\\Presenca\\Sessao</title>
<a xlink:href="DA.Repository.Presenca.Sessao.html" xlink:title="Sessao" target="_parent">
<polygon fill="none" stroke="black" points="885,-1110 829,-1110 829,-1074 885,-1074 885,-1110"/>
<text text-anchor="middle" x="857" y="-1089.1" font-family="Courier,monospace" font-size="11.00">Sessao</text>
</a>
</g>
<!-- \\DA\\Repository\\Presenca\\Sessao&#45;&gt;\\DA\\Repository\\Presenca -->
<g id="edge50" class="edge"><title>\\DA\\Repository\\Presenca\\Sessao&#45;&gt;\\DA\\Repository\\Presenca</title>
<path fill="none" stroke="black" d="M828.452,-1099.79C811.306,-1104.73 789.171,-1111.57 770,-1119 740.707,-1130.35 736.274,-1140.61 706,-1149 635.089,-1168.65 549.854,-1174.28 496.043,-1175.74"/>
<polygon fill="none" stroke="black" points="495.629,-1172.25 485.713,-1175.98 495.791,-1179.25 495.629,-1172.25"/>
</g>
<!-- \\DA\\Repository\\Repository -->
<g id="node26" class="node"><title>\\DA\\Repository\\Repository</title>
<a xlink:href="DA.Repository.Repository.html" xlink:title="Repository" target="_parent">
<polygon fill="none" stroke="black" points="108,-1140 24,-1140 24,-1104 108,-1104 108,-1140"/>
<text text-anchor="middle" x="66" y="-1119.1" font-family="Courier,monospace" font-size="11.00">Repository</text>
</a>
</g>
<!-- \\DA\\Repository\\Presenca&#45;&gt;\\DA\\Repository\\Repository -->
<g id="edge42" class="edge"><title>\\DA\\Repository\\Presenca&#45;&gt;\\DA\\Repository\\Repository</title>
<path fill="none" stroke="black" d="M400.409,-1173.34C348.204,-1169.69 257.165,-1162.04 180,-1149 159.592,-1145.55 137.395,-1140.58 118.057,-1135.84"/>
<polygon fill="none" stroke="black" points="118.778,-1132.41 108.229,-1133.39 117.086,-1139.2 118.778,-1132.41"/>
</g>
<!-- \\DA\\Repository\\Legislatura -->
<g id="node27" class="node"><title>\\DA\\Repository\\Legislatura</title>
<a xlink:href="DA.Repository.Legislatura.html" xlink:title="Legislatura" target="_parent">
<polygon fill="none" stroke="black" points="488,-1140 398,-1140 398,-1104 488,-1104 488,-1140"/>
<text text-anchor="middle" x="443" y="-1119.1" font-family="Courier,monospace" font-size="11.00">Legislatura</text>
</a>
</g>
<!-- \\DA\\Repository\\Legislatura&#45;&gt;\\DA\\Repository\\Repository -->
<g id="edge44" class="edge"><title>\\DA\\Repository\\Legislatura&#45;&gt;\\DA\\Repository\\Repository</title>
<path fill="none" stroke="black" d="M397.149,-1122C326.68,-1122 192.157,-1122 118.1,-1122"/>
<polygon fill="none" stroke="black" points="118.064,-1118.5 108.064,-1122 118.064,-1125.5 118.064,-1118.5"/>
</g>
<!-- \\DA\\Repository\\Deputado -->
<g id="node28" class="node"><title>\\DA\\Repository\\Deputado</title>
<a xlink:href="DA.Repository.Deputado.html" xlink:title="Deputado" target="_parent">
<polygon fill="none" stroke="black" points="478,-1086 408,-1086 408,-1050 478,-1050 478,-1086"/>
<text text-anchor="middle" x="443" y="-1065.1" font-family="Courier,monospace" font-size="11.00">Deputado</text>
</a>
</g>
<!-- \\DA\\Repository\\Deputado&#45;&gt;\\DA\\Repository\\Repository -->
<g id="edge46" class="edge"><title>\\DA\\Repository\\Deputado&#45;&gt;\\DA\\Repository\\Repository</title>
<path fill="none" stroke="black" d="M407.495,-1070.17C356.778,-1073.61 260.785,-1081.35 180,-1095 159.592,-1098.45 137.395,-1103.42 118.057,-1108.16"/>
<polygon fill="none" stroke="black" points="117.086,-1104.8 108.229,-1110.61 118.778,-1111.59 117.086,-1104.8"/>
</g>
<!-- \\DA\\Scrapper\\Presenca\\Comissao -->
<g id="node31" class="node"><title>\\DA\\Scrapper\\Presenca\\Comissao</title>
<a xlink:href="DA.Scrapper.Presenca.Comissao.html" xlink:title="Comissao" target="_parent">
<polygon fill="none" stroke="black" points="892,-974 822,-974 822,-938 892,-938 892,-974"/>
<text text-anchor="middle" x="857" y="-953.1" font-family="Courier,monospace" font-size="11.00">Comissao</text>
</a>
</g>
<!-- \\DA\\Scrapper\\Presenca -->
<g id="node34" class="node"><title>\\DA\\Scrapper\\Presenca</title>
<a xlink:href="DA.Scrapper.Presenca.html" xlink:title="«abstract»&lt;br/&gt;Presenca" target="_parent">
<polygon fill="none" stroke="black" points="485,-970 401,-970 401,-934 485,-934 485,-970"/>
<text text-anchor="start" x="409" y="-957.433" font-family="Courier,monospace" font-size="11.00">«abstract»</text>
<text text-anchor="start" x="415.5" y="-944.233" font-family="Courier,monospace" font-size="11.00">Presenca</text>
</a>
</g>
<!-- \\DA\\Scrapper\\Presenca\\Comissao&#45;&gt;\\DA\\Scrapper\\Presenca -->
<g id="edge30" class="edge"><title>\\DA\\Scrapper\\Presenca\\Comissao&#45;&gt;\\DA\\Scrapper\\Presenca</title>
<path fill="none" stroke="black" d="M821.344,-955.656C748.311,-954.95 581.392,-953.337 495.778,-952.51"/>
<polygon fill="none" stroke="black" points="495.785,-949.01 485.752,-952.413 495.717,-956.01 495.785,-949.01"/>
</g>
<!-- \\DA\\Scrapper\\Presenca\\Sessao -->
<g id="node32" class="node"><title>\\DA\\Scrapper\\Presenca\\Sessao</title>
<a xlink:href="DA.Scrapper.Presenca.Sessao.html" xlink:title="Sessao" target="_parent">
<polygon fill="none" stroke="black" points="885,-920 829,-920 829,-884 885,-884 885,-920"/>
<text text-anchor="middle" x="857" y="-899.1" font-family="Courier,monospace" font-size="11.00">Sessao</text>
</a>
</g>
<!-- \\DA\\Scrapper\\Presenca\\Sessao&#45;&gt;\\DA\\Scrapper\\Presenca -->
<g id="edge32" class="edge"><title>\\DA\\Scrapper\\Presenca\\Sessao&#45;&gt;\\DA\\Scrapper\\Presenca</title>
<path fill="none" stroke="black" d="M828.392,-906.784C798.066,-911.754 748.746,-919.554 706,-925 633.434,-934.246 549.288,-942.444 496.105,-947.316"/>
<polygon fill="none" stroke="black" points="495.536,-943.853 485.894,-948.245 496.17,-950.824 495.536,-943.853"/>
</g>
<!-- \\DA\\Scrapper\\Scrapper -->
<g id="node33" class="node"><title>\\DA\\Scrapper\\Scrapper</title>
<a xlink:href="DA.Scrapper.Scrapper.html" xlink:title="Scrapper" target="_parent">
<polygon fill="none" stroke="black" points="101,-943 31,-943 31,-907 101,-907 101,-943"/>
<text text-anchor="middle" x="66" y="-922.1" font-family="Courier,monospace" font-size="11.00">Scrapper</text>
</a>
</g>
<!-- \\DA\\Scrapper\\Presenca&#45;&gt;\\DA\\Scrapper\\Scrapper -->
<g id="edge26" class="edge"><title>\\DA\\Scrapper\\Presenca&#45;&gt;\\DA\\Scrapper\\Scrapper</title>
<path fill="none" stroke="black" d="M400.486,-948.955C329.088,-943.842 185.693,-933.572 112.015,-928.296"/>
<polygon fill="none" stroke="black" points="111.892,-924.778 101.668,-927.554 111.392,-931.76 111.892,-924.778"/>
</g>
<!-- \\DA\\Scrapper\\Deputado -->
<g id="node35" class="node"><title>\\DA\\Scrapper\\Deputado</title>
<a xlink:href="DA.Scrapper.Deputado.html" xlink:title="Deputado" target="_parent">
<polygon fill="none" stroke="black" points="478,-916 408,-916 408,-880 478,-880 478,-916"/>
<text text-anchor="middle" x="443" y="-895.1" font-family="Courier,monospace" font-size="11.00">Deputado</text>
</a>
</g>
<!-- \\DA\\Scrapper\\Deputado&#45;&gt;\\DA\\Scrapper\\Scrapper -->
<g id="edge28" class="edge"><title>\\DA\\Scrapper\\Deputado&#45;&gt;\\DA\\Scrapper\\Scrapper</title>
<path fill="none" stroke="black" d="M407.193,-900.564C338.38,-905.493 187.768,-916.279 111.779,-921.721"/>
<polygon fill="none" stroke="black" points="111.292,-918.247 101.568,-922.453 111.793,-925.229 111.292,-918.247"/>
</g>
<!-- \\DA\\Util\\Registry -->
<g id="node37" class="node"><title>\\DA\\Util\\Registry</title>
<a xlink:href="DA.Util.Registry.html" xlink:title="Registry" target="_parent">
<polygon fill="none" stroke="black" points="892,-366 822,-366 822,-330 892,-330 892,-366"/>
<text text-anchor="middle" x="857" y="-345.1" font-family="Courier,monospace" font-size="11.00">Registry</text>
</a>
</g>
<!-- \\ArrayObject -->
<g id="node51" class="node"><title>\\ArrayObject</title>
<ellipse fill="none" stroke="black" cx="443" cy="-72" rx="72.832" ry="18.3848"/>
<text text-anchor="middle" x="443" y="-68.4" font-family="Times Roman,serif" font-size="14.00" fill="gray">\ArrayObject</text>
</g>
<!-- \\DA\\Util\\Registry&#45;&gt;\\ArrayObject -->
<g id="edge34" class="edge"><title>\\DA\\Util\\Registry&#45;&gt;\\ArrayObject</title>
<path fill="none" stroke="black" d="M821.109,-344.796C803.562,-341.447 783.394,-334.667 770,-321 698.129,-247.66 784.788,-164.853 706,-99 652.345,-54.1532 569.405,-53.1228 511.039,-59.6397"/>
<polygon fill="none" stroke="black" points="510.307,-56.203 500.804,-60.8874 511.154,-63.1516 510.307,-56.203"/>
</g>
<!-- \\DA\\Util\\Config -->
<g id="node38" class="node"><title>\\DA\\Util\\Config</title>
<a xlink:href="DA.Util.Config.html" xlink:title="Config" target="_parent">
<polygon fill="none" stroke="black" points="885,-312 829,-312 829,-276 885,-276 885,-312"/>
<text text-anchor="middle" x="857" y="-291.1" font-family="Courier,monospace" font-size="11.00">Config</text>
</a>
</g>
<!-- \\Pimple -->
<g id="node53" class="node"><title>\\Pimple</title>
<ellipse fill="none" stroke="black" cx="443" cy="-18" rx="46.1672" ry="18.3848"/>
<text text-anchor="middle" x="443" y="-14.4" font-family="Times Roman,serif" font-size="14.00" fill="gray">\Pimple</text>
</g>
<!-- \\DA\\Util\\Config&#45;&gt;\\Pimple -->
<g id="edge36" class="edge"><title>\\DA\\Util\\Config&#45;&gt;\\Pimple</title>
<path fill="none" stroke="black" d="M852.143,-275.931C838.372,-228.599 794.232,-100.808 706,-45 642.641,-4.92431 553.07,-4.99608 496.527,-10.299"/>
<polygon fill="none" stroke="black" points="495.958,-6.83898 486.368,-11.3416 496.673,-13.8024 495.958,-6.83898"/>
</g>
</g>
</svg>
